<svg width="50" height="50" viewBox="0 0 50 50" fill="none" xmlns="http://www.w3.org/2000/svg">
<path d="M29.1858 24.9622C29.1858 22.721 27.3119 20.9038 25 20.9038C22.6884 20.9038 20.8142 22.721 20.8142 24.9622C20.8142 27.2038 22.6884 29.0208 25 29.0208C27.3119 29.0208 29.1858 27.2038 29.1858 24.9622Z" fill="#53C1DE"/>
<path fill-rule="evenodd" clip-rule="evenodd" d="M38.5944 17.4277C39.4783 13.945 40.5894 7.48669 36.6725 5.29712C32.7739 3.11711 27.7006 7.29442 25.0217 9.80184C22.3506 7.3194 17.1348 3.15995 13.2213 5.35647C9.32423 7.54379 10.526 13.895 11.4295 17.3995C7.79423 18.4006 1.5625 20.5569 1.5625 24.9623C1.5625 29.3553 7.78775 31.7012 11.4015 32.7014C10.4947 36.2253 9.35306 42.4858 13.2551 44.6683C17.1833 46.8644 22.3828 42.8039 25.0866 40.2691C27.7827 42.7912 32.8072 46.8783 36.7066 44.6897C40.6181 42.4942 39.5994 36.1225 38.6958 32.5977C42.1989 31.5953 48.4375 29.3005 48.4375 24.9623C48.4375 20.5992 42.1723 18.4255 38.5944 17.4277ZM38.1503 30.7297C37.557 28.9087 36.7563 26.9723 35.7767 24.972C36.7117 23.0189 37.4814 21.1075 38.0581 19.2983C40.6811 20.0356 46.4352 21.7208 46.4352 24.9623C46.4352 28.2344 40.9134 29.9355 38.1503 30.7297ZM35.7031 43.0094C32.7938 44.6422 28.472 40.7337 26.4809 38.8764C27.8019 37.4756 29.1219 35.8472 30.4102 34.0389C32.6764 33.8441 34.8172 33.5253 36.7588 33.0902C37.3947 35.5834 38.6253 41.3692 35.7031 43.0094ZM14.2557 42.9861C11.346 41.3594 12.6759 35.7728 13.3431 33.177C15.263 33.5889 17.3884 33.8852 19.66 34.0637C20.9567 35.8331 22.315 37.4595 23.6838 38.8839C21.9927 40.47 17.1789 44.6203 14.2557 42.9861ZM3.56483 24.9623C3.56483 21.6781 9.28448 20.0052 11.9672 19.2697C12.5539 21.1195 13.3234 23.0537 14.2519 25.0097C13.3113 26.9947 12.5309 28.9595 11.9388 30.8312C9.38077 30.1212 3.56483 28.2486 3.56483 24.9623ZM14.2245 7.03678C17.1461 5.39712 21.6792 9.39036 23.6186 11.1877C22.2569 12.6055 20.9111 14.2197 19.6255 15.9789C17.4209 16.177 15.3105 16.4952 13.3705 16.9214C12.6426 14.0949 11.3061 8.67467 14.2245 7.03678ZM31.8427 18.0892C33.3383 18.2722 34.7713 18.5156 36.1167 18.8134C35.7128 20.0687 35.2094 21.3814 34.6164 22.727C33.7569 21.1458 32.8342 19.5962 31.8427 18.0892ZM25.0223 12.5752C25.9459 13.5453 26.8709 14.6286 27.7809 15.8039C25.9352 15.7192 24.0864 15.7189 22.2406 15.8027C23.1514 14.6382 24.0844 13.5565 25.0223 12.5752ZM15.4008 22.7256C14.8176 21.3847 14.3187 20.0662 13.9113 18.793C15.2487 18.5028 16.675 18.2656 18.1609 18.0856C17.1666 19.5894 16.2455 21.1383 15.4008 22.7256ZM18.2036 31.9777C16.6686 31.8116 15.2207 31.5864 13.8837 31.3042C14.2976 30.0086 14.8075 28.6617 15.4031 27.2919C16.2594 28.8958 17.1945 30.4597 18.2036 31.9777ZM25.0778 37.4867C24.1288 36.4937 23.182 35.3955 22.2575 34.2142C24.1137 34.2848 25.9736 34.285 27.8297 34.2047C26.9169 35.4075 25.9952 36.5073 25.0778 37.4867ZM34.6355 27.2222C35.262 28.6069 35.7902 29.9464 36.2097 31.2202C34.8505 31.5209 33.3831 31.7631 31.837 31.943C32.8359 30.4073 33.7733 28.8337 34.6355 27.2222ZM29.2927 32.1783C26.4533 32.375 23.5963 32.3728 20.7559 32.1944C19.142 29.9086 17.7053 27.5047 16.4652 25.0091C17.6994 22.5186 19.1256 20.1194 20.7319 17.8372C23.5742 17.6289 26.4341 17.6283 29.2764 17.8384C30.8689 20.1205 32.293 22.5134 33.5558 24.9814C32.308 27.4706 30.8742 29.8747 29.2927 32.1783ZM35.6723 6.97906C38.5947 8.61334 37.2939 14.4176 36.6555 16.9416C34.7108 16.5064 32.5989 16.1827 30.388 15.9814C29.0998 14.2032 27.7653 12.5862 26.4256 11.1867C28.3898 9.35064 32.7783 5.36076 35.6723 6.97906Z" fill="#53C1DE"/>
</svg>
